# xmcd
#
# Track frame offsets: 
#        150
#        18468
#        29121
#        43236
#        59000
#        75592
#        81820
#        96702
#        118425
#        138300
#        154476
#        172302
#        183191
#        200269
#
# Disc length: 2936 seconds
#
# Revision: 1
# Processed by: cddbd v1.5.2PL0 Copyright (c) Steve Scherf et al.
# Submitted via: ExactAudioCopy v1.0b3
#
DISCID=d40b760e
DTITLE=Joe Sachse - Ernst Bier - Helter skelter - Beatles forever
DYEAR=2002
DGENRE=Jazz
TTITLE0=While my guitar gently weeps
TTITLE1=Sun king
TTITLE2=I want you
TTITLE3=Something
TTITLE4=Fixing a hole
TTITLE5=Zitate: Day tripper, Hey, bulldog, Birthday, I feel fine, A ha
TTITLE5=rd day's night
TTITLE6=The fool on the hill
TTITLE7=Within you, without you
TTITLE8=Lady Madonna
TTITLE9=Blackbird
TTITLE10=Get back
TTITLE11=Because
TTITLE12=Eleanor Rigby
TTITLE13=I am the walrus
EXTD=YEAR: 2002
EXTT0=
EXTT1=
EXTT2=
EXTT3=
EXTT4=
EXTT5=
EXTT6=
EXTT7=
EXTT8=
EXTT9=
EXTT10=
EXTT11=
EXTT12=
EXTT13=
PLAYORDER=
